<?xml version="1.0" encoding="UTF-8"?>
<svg id="Layer_1" xmlns="http://www.w3.org/2000/svg" version="1.1" viewBox="0 0 778 141">
  <!-- Generator: Adobe Illustrator 29.3.1, SVG Export Plug-In . SVG Version: 2.1.0 Build 151)  -->
  <defs>
    <style>
      .st0 {
        fill-rule: evenodd;
      }

      .st0, .st1 {
        fill: #f0efef;
      }
    </style>
  </defs>
  <rect x="702.5" y="65.3" width="75.5" height="75.5"/>
  <circle class="st1" cx="740.3" cy="103" r="29"/>
  <rect x="562.1" y=".3" width="140.5" height="140.5"/>
  <path class="st1" d="M632.3,9h0c-34,0-61.5,27.5-61.5,61.5h0c0,34,27.5,61.5,61.5,61.5h0c34,0,61.5-27.5,61.5-61.5h0c0-34-27.5-61.5-61.5-61.5ZM632.3,99.6c-16,0-29-13-29-29s13-29,29-29,29,13,29,29-13,29-29,29Z"/>
  <rect x="421.6" y=".3" width="140.5" height="140.5"/>
  <path class="st0" d="M553.4,9h-123.1v36h43.5v87.1h36V45h43.5V9Z"/>
  <rect x="281.2" y=".3" width="140.5" height="140.5"/>
  <path class="st0" d="M413,9h-123.1v36h43.5v87.1h36V45h43.5V9Z"/>
  <rect x="140.7" y=".3" width="140.5" height="140.5"/>
  <polygon class="st0" points="272.5 45 272.5 9 149.4 9 149.4 45 193 45 193 95.8 149.4 95.8 149.4 132.1 272.5 132.1 272.5 95.8 229 95.8 229 45 272.5 45"/>
  <rect x=".3" y=".3" width="140.5" height="140.5"/>
  <path class="st1" d="M70.5,9H9v123.1h61.5c34,0,61.5-27.5,61.5-61.5S104.5,9,70.5,9ZM70.5,99.6c-16,0-29-13-29-29s13-29,29-29,29,13,29,29-13,29-29,29Z"/>
</svg>